<svg width="522" height="536" viewBox="0 0 522 536" fill="none" xmlns="http://www.w3.org/2000/svg">
<rect x="48" y="171" width="99" height="99" fill="white" stroke="black" stroke-width="10"/>
<rect x="157" y="171" width="99" height="99" fill="white" stroke="black" stroke-width="10"/>
<rect x="266" y="171" width="99" height="99" fill="white" stroke="black" stroke-width="10"/>
<rect x="48" y="280" width="99" height="99" fill="white" stroke="black" stroke-width="10"/>
<rect x="157" y="280" width="99" height="99" fill="white" stroke="black" stroke-width="10"/>
<rect x="266" y="280" width="99" height="99" fill="white" stroke="black" stroke-width="10"/>
<rect x="48" y="389" width="99" height="99" fill="white" stroke="black" stroke-width="10"/>
<rect x="157" y="389" width="99" height="99" fill="white" stroke="black" stroke-width="10"/>
<rect x="266" y="389" width="99" height="99" fill="white" stroke="black" stroke-width="10"/>
<rect x="375" y="171" width="99" height="99" fill="white" stroke="black" stroke-width="10"/>
<rect x="375" y="280" width="99" height="99" fill="white" stroke="black" stroke-width="10"/>
<rect x="375" y="389" width="99" height="99" fill="white" stroke="black" stroke-width="10"/>
<rect x="21.5" y="35.5" width="479" height="479" rx="45.5" stroke="black" stroke-width="43"/>
<rect x="36" y="57" width="451" height="109" fill="black"/>
<path d="M177.084 156.328C158.492 156.328 144.714 151.514 135.75 141.886C126.897 132.147 122.47 117.041 122.47 96.568C122.47 57.1707 140.951 37.472 177.914 37.472C181.455 37.472 185.107 37.7487 188.87 38.302C192.743 38.7447 196.395 39.464 199.826 40.46C203.257 41.3453 206.079 42.452 208.292 43.78C211.169 45.44 212.608 47.2107 212.608 49.092C212.608 50.6413 211.999 52.6887 210.782 55.234C209.565 57.6687 208.126 59.882 206.466 61.874C204.806 63.7553 203.257 64.696 201.818 64.696C201.154 64.696 199.881 64.2533 198 63.368C196.229 62.4827 193.684 61.5973 190.364 60.712C187.044 59.8267 182.728 59.384 177.416 59.384C167.677 59.384 160.429 62.4827 155.67 68.68C151.022 74.8773 148.698 84.2287 148.698 96.734C148.698 109.129 151.022 118.535 155.67 124.954C160.429 131.373 167.567 134.582 177.084 134.582C182.396 134.582 186.878 134.029 190.53 132.922C194.293 131.815 197.336 130.709 199.66 129.602C201.984 128.495 203.533 127.942 204.308 127.942C206.079 127.942 207.683 128.938 209.122 130.93C210.671 132.922 211.889 135.08 212.774 137.404C213.659 139.728 214.102 141.388 214.102 142.384C214.102 143.933 213.549 145.372 212.442 146.7C211.446 147.917 210.063 149.024 208.292 150.02C205.636 151.459 202.427 152.676 198.664 153.672C195.012 154.557 191.249 155.221 187.376 155.664C183.613 156.107 180.183 156.328 177.084 156.328ZM249.317 156.328C240.353 156.328 233.99 154.004 230.227 149.356C226.575 144.597 224.749 138.843 224.749 132.092C224.749 128.661 225.247 125.175 226.243 121.634C227.35 117.982 229.508 114.607 232.717 111.508C235.927 108.409 240.685 105.919 246.993 104.038C253.412 102.157 261.878 101.216 272.391 101.216V95.738C272.391 92.5287 271.34 90.1493 269.237 88.6C267.245 87.0507 263.981 86.276 259.443 86.276C255.459 86.276 251.973 86.7187 248.985 87.604C246.108 88.4893 243.729 89.3747 241.847 90.26C240.077 91.1453 238.859 91.588 238.195 91.588C237.089 91.588 235.816 90.758 234.377 89.098C233.049 87.3273 231.887 85.3907 230.891 83.288C230.006 81.0747 229.563 79.4147 229.563 78.308C229.563 76.4267 230.891 74.6007 233.547 72.83C236.314 71.0593 240.077 69.6207 244.835 68.514C249.705 67.4073 255.183 66.854 261.269 66.854C270.012 66.854 276.984 68.0713 282.185 70.506C287.387 72.83 291.149 76.0947 293.473 80.3C295.797 84.3947 296.959 89.1533 296.959 94.576V125.784C296.959 131.539 297.125 135.965 297.457 139.064C297.789 142.052 298.121 144.321 298.453 145.87C298.785 147.309 298.951 148.637 298.951 149.854C298.951 150.85 298.177 151.68 296.627 152.344C295.189 153.008 293.363 153.561 291.149 154.004C289.047 154.447 286.944 154.779 284.841 155C282.849 155.111 281.355 155.166 280.359 155.166C278.589 155.166 277.261 154.557 276.375 153.34C275.601 152.012 275.047 150.463 274.715 148.692C274.383 146.811 274.051 145.151 273.719 143.712C273.387 144.376 272.225 145.759 270.233 147.862C268.352 149.854 265.641 151.791 262.099 153.672C258.669 155.443 254.408 156.328 249.317 156.328ZM257.451 136.906C260.661 136.906 263.593 135.91 266.249 133.918C269.016 131.926 271.063 129.436 272.391 126.448V117.318C268.407 117.318 264.977 117.595 262.099 118.148C259.222 118.701 256.787 119.476 254.795 120.472C252.914 121.468 251.475 122.741 250.479 124.29C249.594 125.839 249.151 127.61 249.151 129.602C249.151 131.705 249.815 133.475 251.143 134.914C252.582 136.242 254.685 136.906 257.451 136.906ZM342.928 156.328C339.055 156.328 335.569 155.83 332.47 154.834C329.482 153.727 326.937 152.067 324.834 149.854C322.842 147.641 321.293 144.874 320.186 141.554C319.19 138.123 318.692 134.084 318.692 129.436V35.148C318.692 31.6067 322.012 29.836 328.652 29.836H333.3C339.94 29.836 343.26 31.6067 343.26 35.148V129.768C343.26 132.203 343.703 134.029 344.588 135.246C345.584 136.353 347.134 136.906 349.236 136.906C350.011 136.906 350.841 136.795 351.726 136.574C352.612 136.353 353.276 136.242 353.718 136.242C354.825 136.242 355.766 137.183 356.54 139.064C357.315 140.835 357.868 142.716 358.2 144.708C358.643 146.589 358.864 147.751 358.864 148.194C358.864 150.739 357.868 152.621 355.876 153.838C353.995 154.945 351.782 155.609 349.236 155.83C346.802 156.162 344.699 156.328 342.928 156.328ZM371.294 155.332C364.654 155.332 361.334 153.561 361.334 150.02V134.748C361.334 131.207 364.654 129.436 371.294 129.436H376.606C383.246 129.436 386.566 131.207 386.566 134.748V150.02C386.566 153.561 383.246 155.332 376.606 155.332H371.294Z" fill="white"/>
</svg>
