<svg width="522" height="522" viewBox="0 0 522 522" fill="none" xmlns="http://www.w3.org/2000/svg">
<rect x="48" y="157" width="99" height="99" fill="white" stroke="#333a3f" stroke-width="10"/>
<rect x="157" y="157" width="99" height="99" fill="white" stroke="#333a3f" stroke-width="10"/>
<rect x="266" y="157" width="99" height="99" fill="white" stroke="#333a3f" stroke-width="10"/>
<rect x="48" y="266" width="99" height="99" fill="white" stroke="#333a3f" stroke-width="10"/>
<rect x="157" y="266" width="99" height="99" fill="white" stroke="#333a3f" stroke-width="10"/>
<rect x="266" y="266" width="99" height="99" fill="white" stroke="#333a3f" stroke-width="10"/>
<rect x="48" y="375" width="99" height="99" fill="white" stroke="#333a3f" stroke-width="10"/>
<rect x="157" y="375" width="99" height="99" fill="white" stroke="#333a3f" stroke-width="10"/>
<rect x="266" y="375" width="99" height="99" fill="white" stroke="#333a3f" stroke-width="10"/>
<rect x="375" y="157" width="99" height="99" fill="white" stroke="#333a3f" stroke-width="10"/>
<rect x="375" y="266" width="99" height="99" fill="white" stroke="#333a3f" stroke-width="10"/>
<rect x="375" y="375" width="99" height="99" fill="white" stroke="#333a3f" stroke-width="10"/>
<rect x="48.5" y="157.5" width="425" height="316" rx="18.5" stroke="#333a3f" stroke-width="11"/>
<rect x="21.5" y="21.5" width="479" height="479" rx="53.5" stroke="#333a3f" stroke-width="43"/>
<rect x="25" y="25" width="473" height="136" fill="#333a3f"/>
<path d="M192.977 134C176.644 134 164.541 129.776 156.666 121.327C148.889 112.781 145 99.5249 145 81.559C145 46.9869 161.235 29.7008 193.706 29.7008C196.817 29.7008 200.025 29.9436 203.33 30.4291C206.733 30.8176 209.941 31.4488 212.955 32.3228C215.969 33.0997 218.448 34.0709 220.392 35.2362C222.92 36.6929 224.184 38.2467 224.184 39.8976C224.184 41.2572 223.649 43.0538 222.579 45.2874C221.51 47.4239 220.246 49.3661 218.788 51.1142C217.33 52.7651 215.969 53.5905 214.705 53.5905C214.122 53.5905 213.004 53.2021 211.351 52.4252C209.795 51.6483 207.559 50.8714 204.643 50.0945C201.726 49.3176 197.935 48.9291 193.268 48.9291C184.713 48.9291 178.346 51.6483 174.165 57.0866C170.082 62.5249 168.041 70.731 168.041 81.7047C168.041 92.5814 170.082 100.836 174.165 106.468C178.346 112.101 184.616 114.917 192.977 114.917C197.643 114.917 201.58 114.432 204.789 113.461C208.094 112.489 210.768 111.518 212.809 110.547C214.851 109.576 216.212 109.091 216.892 109.091C218.448 109.091 219.857 109.965 221.121 111.713C222.482 113.461 223.552 115.354 224.329 117.394C225.107 119.433 225.496 120.89 225.496 121.764C225.496 123.123 225.01 124.386 224.038 125.551C223.163 126.619 221.948 127.591 220.392 128.465C218.059 129.727 215.24 130.795 211.934 131.669C208.726 132.446 205.421 133.029 202.018 133.417C198.713 133.806 195.699 134 192.977 134Z" fill="white"/>
<path d="M256.432 134C248.557 134 242.967 131.961 239.662 127.882C236.453 123.706 234.849 118.656 234.849 112.732C234.849 109.722 235.287 106.663 236.162 103.555C237.134 100.35 239.03 97.3884 241.849 94.6693C244.668 91.9501 248.849 89.7651 254.39 88.1142C260.029 86.4632 267.466 85.6378 276.701 85.6378V80.8307C276.701 78.0144 275.778 75.9265 273.931 74.5669C272.181 73.2073 269.313 72.5276 265.327 72.5276C261.827 72.5276 258.765 72.916 256.14 73.6929C253.612 74.4698 251.522 75.2467 249.869 76.0236C248.314 76.8005 247.245 77.189 246.661 77.189C245.689 77.189 244.571 76.4606 243.307 75.0039C242.141 73.4501 241.12 71.7507 240.245 69.9055C239.467 67.9633 239.078 66.5066 239.078 65.5354C239.078 63.8845 240.245 62.2821 242.578 60.7283C245.009 59.1745 248.314 57.9121 252.494 56.9409C256.772 55.9698 261.584 55.4842 266.931 55.4842C274.611 55.4842 280.736 56.5525 285.305 58.689C289.874 60.7283 293.18 63.5932 295.221 67.2835C297.263 70.8766 298.284 75.0525 298.284 79.811V107.197C298.284 112.247 298.429 116.131 298.721 118.85C299.013 121.472 299.304 123.463 299.596 124.823C299.888 126.085 300.034 127.251 300.034 128.319C300.034 129.193 299.353 129.921 297.992 130.504C296.728 131.087 295.124 131.572 293.18 131.961C291.333 132.349 289.485 132.64 287.638 132.835C285.888 132.932 284.576 132.98 283.701 132.98C282.146 132.98 280.979 132.446 280.201 131.378C279.521 130.213 279.035 128.853 278.743 127.299C278.451 125.648 278.16 124.192 277.868 122.929C277.576 123.512 276.556 124.726 274.806 126.571C273.153 128.319 270.771 130.018 267.66 131.669C264.646 133.223 260.904 134 256.432 134ZM263.577 116.957C266.396 116.957 268.973 116.083 271.306 114.335C273.736 112.587 275.535 110.402 276.701 107.78V99.7677C273.202 99.7677 270.188 100.01 267.66 100.496C265.133 100.982 262.994 101.661 261.244 102.535C259.591 103.409 258.327 104.526 257.452 105.886C256.675 107.245 256.286 108.799 256.286 110.547C256.286 112.392 256.869 113.946 258.036 115.209C259.299 116.374 261.147 116.957 263.577 116.957Z" fill="white"/>
<path d="M338.666 134C335.263 134 332.201 133.563 329.479 132.689C326.854 131.718 324.618 130.261 322.771 128.319C321.021 126.377 319.66 123.949 318.688 121.035C317.813 118.025 317.375 114.48 317.375 110.402V27.6614C317.375 24.5538 320.292 23 326.125 23H330.208C336.041 23 338.958 24.5538 338.958 27.6614V110.693C338.958 112.829 339.347 114.432 340.124 115.5C340.999 116.471 342.36 116.957 344.207 116.957C344.888 116.957 345.617 116.86 346.395 116.665C347.173 116.471 347.756 116.374 348.145 116.374C349.117 116.374 349.943 117.199 350.624 118.85C351.304 120.404 351.79 122.055 352.082 123.803C352.471 125.454 352.665 126.474 352.665 126.862C352.665 129.096 351.79 130.747 350.04 131.815C348.388 132.786 346.443 133.369 344.207 133.563C342.069 133.854 340.221 134 338.666 134Z" fill="white"/>
<path d="M363.584 133.126C357.751 133.126 354.834 131.572 354.834 128.465V115.063C354.834 111.955 357.751 110.402 363.584 110.402H368.25C374.083 110.402 377 111.955 377 115.063V128.465C377 131.572 374.083 133.126 368.25 133.126H363.584Z" fill="white"/>
</svg>
